Coordinates
version=1
nRows=20
nColumns=23
inDegrees=yes

Units are S.I. units (second, meters, Newtons, ...)
If the header above contains a line with 'inDegrees', this indicates whether rotational values are in degrees (yes) or radians (no).

endheader
time	sacrum_pitch	sacrum_roll	sacrum_yaw	sacrum_x	sacrum_y	sacrum_z	sacroiliac_r_flx	hip_r_flx	hip_r_add	hip_r_int	knee_r_flx	ankle_r_flx	ankle_r_add	ankle_r_int	sacroiliac_l_flx	hip_l_flx	hip_l_add	hip_l_int	knee_l_flx	ankle_l_flx	ankle_l_add	ankle_l_int
      3.06500000	     23.01172047	     -1.20897624	     -2.51588819	      0.04515267	      0.05478488	     -0.00610802	      3.69999987	      1.05095829	    -14.08930439	      5.51875119	   -116.88034817	     12.91021707	     -4.99999985	      0.00000000	      3.70000000	     46.88212240	    -13.26728677	    -13.37658069	    -84.18660683	     33.73362261	     -4.99999985	      0.00000000
      3.07000000	     22.43885544	     -1.80905169	     -2.38046774	      0.04690196	      0.05438082	     -0.00678432	      3.69999987	      0.40146003	    -13.91899837	      6.26740023	   -116.27614597	     11.66897962	     -4.99999985	      0.00000000	      3.70000000	     47.16624715	    -12.60096582	    -13.02670018	    -86.25095969	     35.22854598	     -4.99999985	      0.00000000
      3.07500000	     22.33592171	     -2.93323139	     -2.05703666	      0.04868406	      0.05383716	     -0.00735521	      3.69999987	     -0.34689062	    -13.55890924	      6.43054574	   -115.93076097	      9.29757161	     -4.99999985	      0.00000000	      3.70000000	     47.62966330	    -12.30549461	    -11.94919637	    -89.57996401	     38.17127721	     -4.99999985	      0.00000000
      3.08000000	     22.42376768	     -4.45278521	     -1.46439402	      0.05037282	      0.05339025	     -0.00775775	      3.69999987	     -0.48559222	    -12.33121168	      6.28475818	   -115.96048176	      3.67453992	     -4.99999985	      0.00000000	      3.70000000	     47.35642931	    -12.21519511	    -10.46079491	    -91.76056363	     42.07239356	     -4.99999985	      0.00000000
      3.08500000	     22.20555054	     -5.11825136	     -1.19185217	      0.05204309	      0.05294082	     -0.00825687	      3.69999987	     -0.67773256	    -12.46924587	      6.54222898	   -116.14134994	      2.36389452	     -4.99999985	      0.00000000	      3.70000000	     47.73371546	    -11.78057800	     -9.77584179	    -94.82077481	     43.70055902	     -4.99999985	      0.00000000
      3.09000000	     22.27266275	     -5.95510774	     -0.78082729	      0.05371552	      0.05246501	     -0.00862298	      3.69999987	     -0.68977223	    -12.30708096	      6.53932901	   -116.83652353	      0.59258712	     -4.99999985	      0.00000000	      3.70000000	     47.93898086	    -11.45390720	     -8.79788285	    -98.06819013	     45.41981424	     -4.99999985	      0.00000000
      3.09500000	     22.37490339	     -6.73781474	     -0.33786101	      0.05533666	      0.05204575	     -0.00886119	      3.69999987	     -0.44118424	    -12.11489750	      6.50257712	   -118.00684853	     -1.04156934	     -4.99999985	      0.00000000	      3.70000000	     47.99618390	    -11.26560424	     -7.78665133	   -100.92519728	     46.83374141	     -4.99999985	      0.00000000
      3.10000000	     21.75158904	     -6.94739612	      0.02900725	      0.05699337	      0.05213041	     -0.00905869	      3.69999987	     -0.44796122	    -12.23871024	      6.50979123	   -117.95610540	     -0.87118142	     -4.99999985	      0.00000000	      3.70000000	     47.27836426	    -11.30449508	     -7.73404546	   -101.05361394	     46.36021379	     -4.99999985	      0.00000000
      3.10500000	     22.43682173	     -8.30681430	      0.73488283	      0.05863538	      0.05138088	     -0.00901219	      3.69999987	      1.21996653	    -11.49489438	      6.15467530	   -121.86560552	     -3.39171651	     -4.99999985	      0.00000000	      3.70000000	     48.05263376	    -11.12876118	     -5.46783963	   -106.57110757	     48.71327362	     -4.99999985	      0.00000000
      3.11000000	     22.71858278	     -8.59728290	      1.10536272	      0.06032554	      0.05106893	     -0.00899511	      3.69999987	      2.35720481	    -11.69946361	      6.37151033	   -124.83926171	     -3.14979643	     -4.99999985	      0.00000000	      3.70000000	     47.37548066	    -10.98491761	     -4.67634726	   -108.98779295	     49.41713997	     -4.99999985	      0.00000000
      3.11500000	     22.89178597	     -8.98684738	      1.55001850	      0.06197630	      0.05079554	     -0.00886579	      3.69999987	      4.01703245	    -11.96049885	      6.51772173	   -128.25845924	     -2.04650388	     -4.99999985	      0.00000000	      3.70000000	     46.92563880	    -10.98094312	     -3.79875933	   -111.47055293	     50.12007882	     -4.99999985	      0.00000000
      3.12000000	     22.99807871	     -9.25237502	      1.97434898	      0.06362469	      0.05057638	     -0.00867176	      3.69999987	      5.99498727	    -12.27105516	      6.83090263	   -131.88141564	      0.38800377	     -4.99999985	      0.00000000	      3.70000000	     46.46283904	    -10.99665676	     -2.94112220	   -113.88683611	     50.53917556	     -4.99999985	      0.00000000
      3.12500000	     22.28836875	     -9.31714646	      2.15559183	      0.06515937	      0.05051342	     -0.00846317	      3.69999987	      7.75439611	    -12.55737216	      7.70392790	   -135.39377908	     10.14767526	     -4.99999985	      0.00000000	      3.70000000	     46.86265366	    -11.10000845	     -2.45922670	   -115.98356199	     50.51637851	     -4.99999985	      0.00000000
      3.13000000	     22.46408687	     -9.28185846	      2.63715041	      0.06682946	      0.05042932	     -0.00814842	      3.69999987	      8.63664242	    -12.93651726	      8.41553386	   -138.16503015	     18.41138453	     -4.99999985	      0.00000000	      3.70000000	     46.05237400	    -11.13403632	     -1.92441836	   -117.92328519	     50.93722454	     -4.99999985	      0.00000000
      3.13500000	     22.39561882	     -9.23496869	      3.02780539	      0.06845376	      0.05045690	     -0.00780782	      3.69999987	     10.08573579	    -13.36563715	      9.22370966	   -140.35014229	     26.68510640	     -4.99999985	      0.00000000	      3.70000000	     45.34265893	    -11.31491611	     -1.44594698	   -119.50025316	     51.29978775	     -4.99999985	      0.00000000
      3.14000000	     22.46100226	     -9.11316437	      3.46647368	      0.07009087	      0.05054068	     -0.00740810	      3.69999987	     11.46104966	    -13.85452836	      9.99079517	   -141.68933655	     35.07684925	     -4.99999985	      0.00000000	      3.70000000	     44.45466175	    -11.58278581	     -1.01999775	   -120.87738623	     51.57182681	     -4.99999985	      0.00000000
      3.14500000	     22.44177963	     -8.89189703	      3.95154342	      0.07169444	      0.05069433	     -0.00694014	      3.69999987	     13.53408606	    -14.31331040	     10.49324575	   -142.43958421	     41.96203024	     -4.99999985	      0.00000000	      3.70000000	     43.46057023	    -11.94710854	     -0.80697008	   -121.78229054	     51.92938616	     -4.99999985	      0.00000000
      3.15000000	     22.59457038	     -8.68666035	      4.46750033	      0.07331724	      0.05082913	     -0.00645203	      3.69999987	     16.03191864	    -14.95216096	     10.92710555	   -142.54481720	     47.15288865	     -4.99999985	      0.00000000	      3.70000000	     42.42953957	    -12.37621579	     -0.47545037	   -122.74812352	     52.19361082	     -4.99999985	      0.00000000
      3.15500000	     23.19489802	     -8.54411694	      5.08282995	      0.07495973	      0.05094973	     -0.00589314	      3.69999987	     18.98101649	    -15.38856191	     10.89163593	   -142.43617320	     49.41356616	     -4.99999985	      0.00000000	      3.70000000	     40.92686854	    -12.85068638	      0.00498118	   -123.65897926	     52.40097694	     -4.99999985	      0.00000000
      3.16000000	     23.52438208	     -8.30552035	      5.64952557	      0.07657511	      0.05115880	     -0.00533522	      3.69999987	     22.51359951	    -15.98400509	     10.52116759	   -141.71231404	     51.73027284	     -4.99999985	      0.00000000	      3.70000000	     39.59835612	    -13.41611489	      0.26723512	   -124.19548247	     52.39073865	     -4.99999985	      0.00000000
